<?xml version="1.0" encoding="utf-8"?>
<!-- Generator: Adobe Illustrator 21.0.0, SVG Export Plug-In . SVG Version: 6.00 Build 0)  -->
<svg version="1.1" id="katman_1" xmlns="http://www.w3.org/2000/svg" xmlns:xlink="http://www.w3.org/1999/xlink" x="0px" y="0px"
	 viewBox="0 0 1080 1080" style="enable-background:new 0 0 1080 1080;" xml:space="preserve">
<style type="text/css">
	.st0{fill:url(#SVGID_1_);}
	.st1{fill:url(#SVGID_2_);}
</style>
<g>
	<linearGradient id="SVGID_1_" gradientUnits="userSpaceOnUse" x1="46.72" y1="540.9427" x2="1031.8683" y2="540.9427">
		<stop  offset="0" style="stop-color:#141E30"/>
		<stop  offset="1" style="stop-color:#243B55"/>
	</linearGradient>
	<path class="st0" d="M46.7,69.3v943.4h943.4V527.4l-52.7-60.6v493.1h-838l-0.2-838.1l838.1,0.1v258.3l52.7-60.6V69.3H46.7z
		 M1031.9,487.7V371.5l-58.1,58.1L1031.9,487.7z"/>
</g>
<g>
	<linearGradient id="SVGID_2_" gradientUnits="userSpaceOnUse" x1="237.1768" y1="541.295" x2="958.5868" y2="541.295">
		<stop  offset="0" style="stop-color:#141E30"/>
		<stop  offset="1" style="stop-color:#243B55"/>
	</linearGradient>
	<polygon class="st1" points="909.2,386.7 958.6,430 908.1,472.1 767.2,472.1 767.2,875.3 682.8,875.3 682.8,472.3 544.9,472.3 
		544.9,708.1 459.9,708.1 459.9,472.3 322.2,472.3 322.2,708.1 237.2,708.1 237.2,207.3 322.2,207.3 322.2,386.7 459.9,386.7 
		459.9,207.3 544.9,207.3 544.9,386.7 906.7,386.7 	"/>
</g>
</svg>
