<?xml version="1.0" standalone="no"?>
<svg xmlns:xlink="http://www.w3.org/1999/xlink" id="wave" style="transform:rotate(180deg); transition: 0.3s" viewBox="0 0 1440 340" version="1.1" xmlns="http://www.w3.org/2000/svg"><defs><linearGradient id="sw-gradient-0" x1="0" x2="0" y1="1" y2="0"><stop stop-color="rgba(0, 151.335, 255, 1)" offset="0%"/><stop stop-color="rgba(47.085, 118.864, 248.525, 1)" offset="100%"/></linearGradient></defs><path style="transform:translate(0, 0px); opacity:1" fill="url(#sw-gradient-0)" d="M0,170L24,147.3C48,125,96,79,144,62.3C192,45,240,57,288,85C336,113,384,159,432,198.3C480,238,528,272,576,266.3C624,261,672,215,720,175.7C768,136,816,102,864,107.7C912,113,960,159,1008,175.7C1056,193,1104,181,1152,181.3C1200,181,1248,193,1296,215.3C1344,238,1392,272,1440,260.7C1488,249,1536,193,1584,147.3C1632,102,1680,68,1728,73.7C1776,79,1824,125,1872,130.3C1920,136,1968,102,2016,73.7C2064,45,2112,23,2160,17C2208,11,2256,23,2304,39.7C2352,57,2400,79,2448,79.3C2496,79,2544,57,2592,79.3C2640,102,2688,170,2736,164.3C2784,159,2832,79,2880,85C2928,91,2976,181,3024,192.7C3072,204,3120,136,3168,136C3216,136,3264,204,3312,209.7C3360,215,3408,159,3432,130.3L3456,102L3456,340L3432,340C3408,340,3360,340,3312,340C3264,340,3216,340,3168,340C3120,340,3072,340,3024,340C2976,340,2928,340,2880,340C2832,340,2784,340,2736,340C2688,340,2640,340,2592,340C2544,340,2496,340,2448,340C2400,340,2352,340,2304,340C2256,340,2208,340,2160,340C2112,340,2064,340,2016,340C1968,340,1920,340,1872,340C1824,340,1776,340,1728,340C1680,340,1632,340,1584,340C1536,340,1488,340,1440,340C1392,340,1344,340,1296,340C1248,340,1200,340,1152,340C1104,340,1056,340,1008,340C960,340,912,340,864,340C816,340,768,340,720,340C672,340,624,340,576,340C528,340,480,340,432,340C384,340,336,340,288,340C240,340,192,340,144,340C96,340,48,340,24,340L0,340Z"/><defs><linearGradient id="sw-gradient-1" x1="0" x2="0" y1="1" y2="0"><stop stop-color="rgba(26.715, 84.859, 255, 1)" offset="0%"/><stop stop-color="rgba(196.61, 217.416, 255, 1)" offset="100%"/></linearGradient></defs><path style="transform:translate(0, 50px); opacity:0.9" fill="url(#sw-gradient-1)" d="M0,102L24,96.3C48,91,96,79,144,102C192,125,240,181,288,175.7C336,170,384,102,432,62.3C480,23,528,11,576,28.3C624,45,672,91,720,119C768,147,816,159,864,147.3C912,136,960,102,1008,73.7C1056,45,1104,23,1152,22.7C1200,23,1248,45,1296,56.7C1344,68,1392,68,1440,62.3C1488,57,1536,45,1584,62.3C1632,79,1680,125,1728,136C1776,147,1824,125,1872,147.3C1920,170,1968,238,2016,249.3C2064,261,2112,215,2160,170C2208,125,2256,79,2304,73.7C2352,68,2400,102,2448,136C2496,170,2544,204,2592,221C2640,238,2688,238,2736,221C2784,204,2832,170,2880,147.3C2928,125,2976,113,3024,90.7C3072,68,3120,34,3168,45.3C3216,57,3264,113,3312,113.3C3360,113,3408,57,3432,28.3L3456,0L3456,340L3432,340C3408,340,3360,340,3312,340C3264,340,3216,340,3168,340C3120,340,3072,340,3024,340C2976,340,2928,340,2880,340C2832,340,2784,340,2736,340C2688,340,2640,340,2592,340C2544,340,2496,340,2448,340C2400,340,2352,340,2304,340C2256,340,2208,340,2160,340C2112,340,2064,340,2016,340C1968,340,1920,340,1872,340C1824,340,1776,340,1728,340C1680,340,1632,340,1584,340C1536,340,1488,340,1440,340C1392,340,1344,340,1296,340C1248,340,1200,340,1152,340C1104,340,1056,340,1008,340C960,340,912,340,864,340C816,340,768,340,720,340C672,340,624,340,576,340C528,340,480,340,432,340C384,340,336,340,288,340C240,340,192,340,144,340C96,340,48,340,24,340L0,340Z"/><defs><linearGradient id="sw-gradient-2" x1="0" x2="0" y1="1" y2="0"><stop stop-color="rgba(126.06, 158.901, 255, 1)" offset="0%"/><stop stop-color="rgba(87.167, 112.214, 250.802, 1)" offset="100%"/></linearGradient></defs><path style="transform:translate(0, 100px); opacity:0.8" fill="url(#sw-gradient-2)" d="M0,68L24,68C48,68,96,68,144,62.3C192,57,240,45,288,34C336,23,384,11,432,5.7C480,0,528,0,576,5.7C624,11,672,23,720,73.7C768,125,816,215,864,255C912,295,960,283,1008,238C1056,193,1104,113,1152,73.7C1200,34,1248,34,1296,79.3C1344,125,1392,215,1440,243.7C1488,272,1536,238,1584,221C1632,204,1680,204,1728,187C1776,170,1824,136,1872,107.7C1920,79,1968,57,2016,51C2064,45,2112,57,2160,90.7C2208,125,2256,181,2304,215.3C2352,249,2400,261,2448,232.3C2496,204,2544,136,2592,136C2640,136,2688,204,2736,209.7C2784,215,2832,159,2880,130.3C2928,102,2976,102,3024,96.3C3072,91,3120,79,3168,85C3216,91,3264,113,3312,119C3360,125,3408,113,3432,107.7L3456,102L3456,340L3432,340C3408,340,3360,340,3312,340C3264,340,3216,340,3168,340C3120,340,3072,340,3024,340C2976,340,2928,340,2880,340C2832,340,2784,340,2736,340C2688,340,2640,340,2592,340C2544,340,2496,340,2448,340C2400,340,2352,340,2304,340C2256,340,2208,340,2160,340C2112,340,2064,340,2016,340C1968,340,1920,340,1872,340C1824,340,1776,340,1728,340C1680,340,1632,340,1584,340C1536,340,1488,340,1440,340C1392,340,1344,340,1296,340C1248,340,1200,340,1152,340C1104,340,1056,340,1008,340C960,340,912,340,864,340C816,340,768,340,720,340C672,340,624,340,576,340C528,340,480,340,432,340C384,340,336,340,288,340C240,340,192,340,144,340C96,340,48,340,24,340L0,340Z"/></svg>