<?xml version="1.0" standalone="no"?>
<svg xmlns:xlink="http://www.w3.org/1999/xlink" id="wave" style="transform:rotate(180deg); transition: 0.3s" viewBox="0 0 1440 310" version="1.1" xmlns="http://www.w3.org/2000/svg"><defs><linearGradient id="sw-gradient-0" x1="0" x2="0" y1="1" y2="0"><stop stop-color="rgba(62, 114.232, 243, 1)" offset="0%"/><stop stop-color="rgba(14.638, 5.045, 196.159, 1)" offset="100%"/></linearGradient></defs><path style="transform:translate(0, 0px); opacity:1" fill="url(#sw-gradient-0)" d="M0,93L60,98.2C120,103,240,114,360,129.2C480,145,600,165,720,144.7C840,124,960,62,1080,36.2C1200,10,1320,21,1440,25.8C1560,31,1680,31,1800,72.3C1920,114,2040,196,2160,201.5C2280,207,2400,134,2520,98.2C2640,62,2760,62,2880,67.2C3000,72,3120,83,3240,72.3C3360,62,3480,31,3600,31C3720,31,3840,62,3960,108.5C4080,155,4200,217,4320,248C4440,279,4560,279,4680,268.7C4800,258,4920,238,5040,237.7C5160,238,5280,258,5400,227.3C5520,196,5640,114,5760,82.7C5880,52,6000,72,6120,67.2C6240,62,6360,31,6480,31C6600,31,6720,62,6840,93C6960,124,7080,155,7200,175.7C7320,196,7440,207,7560,217C7680,227,7800,238,7920,222.2C8040,207,8160,165,8280,134.3C8400,103,8520,83,8580,72.3L8640,62L8640,310L8580,310C8520,310,8400,310,8280,310C8160,310,8040,310,7920,310C7800,310,7680,310,7560,310C7440,310,7320,310,7200,310C7080,310,6960,310,6840,310C6720,310,6600,310,6480,310C6360,310,6240,310,6120,310C6000,310,5880,310,5760,310C5640,310,5520,310,5400,310C5280,310,5160,310,5040,310C4920,310,4800,310,4680,310C4560,310,4440,310,4320,310C4200,310,4080,310,3960,310C3840,310,3720,310,3600,310C3480,310,3360,310,3240,310C3120,310,3000,310,2880,310C2760,310,2640,310,2520,310C2400,310,2280,310,2160,310C2040,310,1920,310,1800,310C1680,310,1560,310,1440,310C1320,310,1200,310,1080,310C960,310,840,310,720,310C600,310,480,310,360,310C240,310,120,310,60,310L0,310Z"/><defs><linearGradient id="sw-gradient-1" x1="0" x2="0" y1="1" y2="0"><stop stop-color="rgba(18.365, 42.813, 223.481, 1)" offset="0%"/><stop stop-color="rgba(14.422, 4.01, 127.856, 1)" offset="100%"/></linearGradient></defs><path style="transform:translate(0, 50px); opacity:0.9" fill="url(#sw-gradient-1)" d="M0,155L60,170.5C120,186,240,217,360,191.2C480,165,600,83,720,77.5C840,72,960,145,1080,160.2C1200,176,1320,134,1440,118.8C1560,103,1680,114,1800,124C1920,134,2040,145,2160,149.8C2280,155,2400,155,2520,170.5C2640,186,2760,217,2880,196.3C3000,176,3120,103,3240,87.8C3360,72,3480,114,3600,124C3720,134,3840,114,3960,87.8C4080,62,4200,31,4320,25.8C4440,21,4560,41,4680,67.2C4800,93,4920,124,5040,160.2C5160,196,5280,238,5400,227.3C5520,217,5640,155,5760,129.2C5880,103,6000,114,6120,139.5C6240,165,6360,207,6480,227.3C6600,248,6720,248,6840,232.5C6960,217,7080,186,7200,144.7C7320,103,7440,52,7560,51.7C7680,52,7800,103,7920,108.5C8040,114,8160,72,8280,51.7C8400,31,8520,31,8580,31L8640,31L8640,310L8580,310C8520,310,8400,310,8280,310C8160,310,8040,310,7920,310C7800,310,7680,310,7560,310C7440,310,7320,310,7200,310C7080,310,6960,310,6840,310C6720,310,6600,310,6480,310C6360,310,6240,310,6120,310C6000,310,5880,310,5760,310C5640,310,5520,310,5400,310C5280,310,5160,310,5040,310C4920,310,4800,310,4680,310C4560,310,4440,310,4320,310C4200,310,4080,310,3960,310C3840,310,3720,310,3600,310C3480,310,3360,310,3240,310C3120,310,3000,310,2880,310C2760,310,2640,310,2520,310C2400,310,2280,310,2160,310C2040,310,1920,310,1800,310C1680,310,1560,310,1440,310C1320,310,1200,310,1080,310C960,310,840,310,720,310C600,310,480,310,360,310C240,310,120,310,60,310L0,310Z"/></svg>