<?xml version="1.0" standalone="no"?>
<svg xmlns:xlink="http://www.w3.org/1999/xlink" id="wave" style="transform:rotate(180deg); transition: 0.3s" viewBox="0 0 1440 310" version="1.1" xmlns="http://www.w3.org/2000/svg"><defs><linearGradient id="sw-gradient-0" x1="0" x2="0" y1="1" y2="0"><stop stop-color="rgba(62, 114.232, 243, 1)" offset="0%"/><stop stop-color="rgba(14.638, 5.045, 196.159, 1)" offset="100%"/></linearGradient></defs><path style="transform:translate(0, 0px); opacity:1" fill="url(#sw-gradient-0)" d="M0,279L24,242.8C48,207,96,134,144,113.7C192,93,240,124,288,149.8C336,176,384,196,432,175.7C480,155,528,93,576,103.3C624,114,672,196,720,206.7C768,217,816,155,864,129.2C912,103,960,114,1008,103.3C1056,93,1104,62,1152,82.7C1200,103,1248,176,1296,217C1344,258,1392,269,1440,253.2C1488,238,1536,196,1584,160.2C1632,124,1680,93,1728,98.2C1776,103,1824,145,1872,155C1920,165,1968,145,2016,149.8C2064,155,2112,186,2160,175.7C2208,165,2256,114,2304,93C2352,72,2400,83,2448,108.5C2496,134,2544,176,2592,165.3C2640,155,2688,93,2736,93C2784,93,2832,155,2880,170.5C2928,186,2976,155,3024,124C3072,93,3120,62,3168,46.5C3216,31,3264,31,3312,36.2C3360,41,3408,52,3432,56.8L3456,62L3456,310L3432,310C3408,310,3360,310,3312,310C3264,310,3216,310,3168,310C3120,310,3072,310,3024,310C2976,310,2928,310,2880,310C2832,310,2784,310,2736,310C2688,310,2640,310,2592,310C2544,310,2496,310,2448,310C2400,310,2352,310,2304,310C2256,310,2208,310,2160,310C2112,310,2064,310,2016,310C1968,310,1920,310,1872,310C1824,310,1776,310,1728,310C1680,310,1632,310,1584,310C1536,310,1488,310,1440,310C1392,310,1344,310,1296,310C1248,310,1200,310,1152,310C1104,310,1056,310,1008,310C960,310,912,310,864,310C816,310,768,310,720,310C672,310,624,310,576,310C528,310,480,310,432,310C384,310,336,310,288,310C240,310,192,310,144,310C96,310,48,310,24,310L0,310Z"/><defs><linearGradient id="sw-gradient-1" x1="0" x2="0" y1="1" y2="0"><stop stop-color="rgba(18.365, 42.813, 223.481, 1)" offset="0%"/><stop stop-color="rgba(14.422, 4.01, 127.856, 1)" offset="100%"/></linearGradient></defs><path style="transform:translate(0, 50px); opacity:0.9" fill="url(#sw-gradient-1)" d="M0,62L24,56.8C48,52,96,41,144,77.5C192,114,240,196,288,196.3C336,196,384,114,432,113.7C480,114,528,196,576,232.5C624,269,672,258,720,258.3C768,258,816,269,864,248C912,227,960,176,1008,129.2C1056,83,1104,41,1152,20.7C1200,0,1248,0,1296,15.5C1344,31,1392,62,1440,67.2C1488,72,1536,52,1584,46.5C1632,41,1680,52,1728,77.5C1776,103,1824,145,1872,170.5C1920,196,1968,207,2016,186C2064,165,2112,114,2160,77.5C2208,41,2256,21,2304,46.5C2352,72,2400,145,2448,175.7C2496,207,2544,196,2592,191.2C2640,186,2688,186,2736,165.3C2784,145,2832,103,2880,118.8C2928,134,2976,207,3024,217C3072,227,3120,176,3168,165.3C3216,155,3264,186,3312,196.3C3360,207,3408,196,3432,191.2L3456,186L3456,310L3432,310C3408,310,3360,310,3312,310C3264,310,3216,310,3168,310C3120,310,3072,310,3024,310C2976,310,2928,310,2880,310C2832,310,2784,310,2736,310C2688,310,2640,310,2592,310C2544,310,2496,310,2448,310C2400,310,2352,310,2304,310C2256,310,2208,310,2160,310C2112,310,2064,310,2016,310C1968,310,1920,310,1872,310C1824,310,1776,310,1728,310C1680,310,1632,310,1584,310C1536,310,1488,310,1440,310C1392,310,1344,310,1296,310C1248,310,1200,310,1152,310C1104,310,1056,310,1008,310C960,310,912,310,864,310C816,310,768,310,720,310C672,310,624,310,576,310C528,310,480,310,432,310C384,310,336,310,288,310C240,310,192,310,144,310C96,310,48,310,24,310L0,310Z"/></svg>